<svg width="680" height="460" viewBox="0 0 680 460" role="img" xmlns="http://www.w3.org/2000/svg">
<title>Illustrazione di Luca per il progetto TERRA v2.3</title>
<desc>Composizione geometrica astratta in verde e beige che rappresenta il codice e i valori che camminano insieme nel progetto PED</desc>

<rect width="680" height="460" fill="#f5f0e8"/>

<circle cx="340" cy="200" r="180" fill="none" stroke="#2d4121" stroke-width="0.5" opacity="0.2"/>
<circle cx="340" cy="200" r="140" fill="none" stroke="#2d4121" stroke-width="0.5" opacity="0.15"/>
<circle cx="340" cy="200" r="100" fill="none" stroke="#2d4121" stroke-width="0.5" opacity="0.1"/>

<path d="M200 200 Q240 130 300 160 Q260 200 300 240 Q240 270 200 200Z" fill="#2d4121" opacity="0.85"/>
<path d="M200 200 Q260 200 300 200" fill="none" stroke="#f5f0e8" stroke-width="0.8" opacity="0.5"/>

<path d="M480 200 Q440 130 380 160 Q420 200 380 240 Q440 270 480 200Z" fill="#639922" opacity="0.85"/>
<path d="M480 200 Q420 200 380 200" fill="none" stroke="#f5f0e8" stroke-width="0.8" opacity="0.5"/>

<circle cx="340" cy="200" r="18" fill="#f5f0e8" stroke="#2d4121" stroke-width="1.5"/>
<circle cx="340" cy="200" r="8" fill="#2d4121"/>

<line x1="100" y1="200" x2="280" y2="200" stroke="#2d4121" stroke-width="0.5" opacity="0.3"/>
<line x1="400" y1="200" x2="580" y2="200" stroke="#2d4121" stroke-width="0.5" opacity="0.3"/>

<circle cx="340" cy="50" r="3" fill="#2d4121" opacity="0.4"/>
<circle cx="340" cy="65" r="2" fill="#2d4121" opacity="0.3"/>
<circle cx="340" cy="77" r="1.5" fill="#2d4121" opacity="0.2"/>

<circle cx="340" cy="350" r="3" fill="#2d4121" opacity="0.4"/>
<circle cx="340" cy="335" r="2" fill="#2d4121" opacity="0.3"/>
<circle cx="340" cy="323" r="1.5" fill="#2d4121" opacity="0.2"/>

<text x="340" y="382" text-anchor="middle" font-family="Atkinson Hyperlegible, Verdana, sans-serif" font-size="11" fill="#2d4121" opacity="0.6" letter-spacing="1">copyright 26/05/2026</text>
<text x="340" y="400" text-anchor="middle" font-family="Atkinson Hyperlegible, Verdana, sans-serif" font-size="12" font-weight="700" fill="#2d4121" letter-spacing="2">PASSAPORTO ETICO DIGITALE</text>
<text x="340" y="418" text-anchor="middle" font-family="Atkinson Hyperlegible, Verdana, sans-serif" font-size="11" fill="#2d4121" opacity="0.8" letter-spacing="1">pwa TERRA v2.3</text>
<text x="340" y="436" text-anchor="middle" font-family="Atkinson Hyperlegible, Verdana, sans-serif" font-size="11" fill="#2d4121" opacity="0.8" letter-spacing="1">+ cobot Luca (Claude)</text>
</svg>
